<?xml version="1.0" standalone="no"?>
<!DOCTYPE svg PUBLIC "-//W3C//DTD SVG 20010904//EN"
 "http://www.w3.org/TR/2001/REC-SVG-20010904/DTD/svg10.dtd">
<svg version="1.0" xmlns="http://www.w3.org/2000/svg"
 width="353.000000pt" height="272.000000pt" viewBox="0 0 353.000000 272.000000"
 preserveAspectRatio="xMidYMid meet">
<metadata>
Created by potrace 1.15, written by Peter Selinger 2001-2017
</metadata>
<g transform="translate(0.000000,272.000000) scale(0.100000,-0.100000)"
fill="#000000" stroke="none">
<path d="M0 1360 l0 -1360 1765 0 1765 0 0 405 0 405 -1697 1 c-1600 0 -1697
1 -1673 17 13 9 235 160 492 335 l469 318 777 -215 c427 -118 965 -267 1194
-330 230 -64 422 -116 428 -116 7 0 10 306 10 950 l0 950 -1765 0 -1765 0 0
-1360z m3395 761 c-9 -7 -929 -634 -961 -654 -6 -3 -378 95 -825 219 -448 123
-985 272 -1194 330 -209 57 -384 106 -390 109 -5 2 753 4 1685 4 979 1 1690
-3 1685 -8z"/>
</g>
</svg>
