<svg width="168.94127502441407px" height="64.15748138427733px" xmlns="http://www.w3.org/2000/svg" viewBox="165.52936248779298 42.921259307861334 168.94127502441407 64.15748138427733" style="background: rgb(0, 0, 0);" preserveAspectRatio="xMidYMid"><defs><filter id="editing-hover" x="-100%" y="-100%" width="300%" height="300%"><feFlood flood-color="#ffffff" result="flood"></feFlood><feComposite operator="in" in2="SourceAlpha" in="flood" result="shadow"></feComposite><feOffset dx="0" dy="0" in="SourceGraphic" result="offset-1"></feOffset><feOffset dx="0" dy="0" in="shadow" result="offset-2"></feOffset><feMerge><feMergeNode in="offset-2"></feMergeNode><feMergeNode in="offset-1"></feMergeNode></feMerge></filter></defs><g filter="url(#editing-hover)"><g transform="translate(195.51218521595, 85.140625)"><path d="M22.98-18.91L22.98-16.20L5.62-2.70L22.98-2.70L22.98 0L1.13 0L1.13-2.70L18.60-16.20L1.13-16.20L1.13-18.91L22.98-18.91ZM43.15-10.13L43.15-10.13L43.15-10.13Q43.15-9.14 42.78-8.28L42.78-8.28L42.78-8.28Q42.41-7.42 41.77-6.78L41.77-6.78L41.77-6.78Q41.13-6.14 40.27-5.77L40.27-5.77L40.27-5.77Q39.41-5.41 38.43-5.41L38.43-5.41L28.08-5.41L28.08-5.41Q28.37-4.81 28.81-4.31L28.81-4.31L28.81-4.31Q29.24-3.81 29.78-3.45L29.78-3.45L29.78-3.45Q30.32-3.10 30.96-2.90L30.96-2.90L30.96-2.90Q31.60-2.70 32.30-2.70L32.30-2.70L41.13-2.70L41.13 0L32.30 0L32.30 0Q30.77-0.01 29.43-0.60L29.43-0.60L29.43-0.60Q28.08-1.19 27.09-2.20L27.09-2.20L27.09-2.20Q26.09-3.20 25.51-4.55L25.51-4.55L25.51-4.55Q24.93-5.89 24.93-7.42L24.93-7.42L24.93-7.42Q24.93-8.95 25.51-10.30L25.51-10.30L25.51-10.30Q26.09-11.64 27.09-12.65L27.09-12.65L27.09-12.65Q28.08-13.66 29.43-14.24L29.43-14.24L29.43-14.24Q30.77-14.83 32.30-14.84L32.30-14.84L38.43-14.84L38.43-14.84Q39.41-14.84 40.27-14.48L40.27-14.48L40.27-14.48Q41.13-14.11 41.77-13.47L41.77-13.47L41.77-13.47Q42.41-12.83 42.78-11.97L42.78-11.97L42.78-11.97Q43.15-11.11 43.15-10.13ZM27.69-8.09L38.43-8.09L38.43-8.09Q38.84-8.09 39.21-8.25L39.21-8.25L39.21-8.25Q39.58-8.41 39.85-8.69L39.85-8.69L39.85-8.69Q40.13-8.96 40.29-9.33L40.29-9.33L40.29-9.33Q40.45-9.70 40.45-10.13L40.45-10.13L40.45-10.13Q40.45-10.53 40.29-10.90L40.29-10.90L40.29-10.90Q40.13-11.27 39.85-11.55L39.85-11.55L39.85-11.55Q39.58-11.83 39.21-11.99L39.21-11.99L39.21-11.99Q38.84-12.16 38.43-12.16L38.43-12.16L32.30-12.16L32.30-12.16Q31.40-12.16 30.62-11.84L30.62-11.84L30.62-11.84Q29.83-11.52 29.22-10.98L29.22-10.98L29.22-10.98Q28.61-10.43 28.21-9.68L28.21-9.68L28.21-9.68Q27.80-8.94 27.69-8.09L27.69-8.09ZM48.49-12.16L48.49 0L45.79 0L45.79-14.84L55.91-14.84L55.91-14.84Q57.44-14.84 58.79-14.26L58.79-14.26L58.79-14.26Q60.13-13.67 61.13-12.66L61.13-12.66L61.13-12.66Q62.13-11.65 62.71-10.30L62.71-10.30L62.71-10.30Q63.29-8.95 63.29-7.42L63.29-7.42L63.29 0L60.59 0L60.59-7.42L60.59-7.42Q60.59-8.40 60.22-9.25L60.22-9.25L60.22-9.25Q59.85-10.11 59.22-10.75L59.22-10.75L59.22-10.75Q58.59-11.39 57.74-11.77L57.74-11.77L57.74-11.77Q56.89-12.14 55.91-12.16L55.91-12.16L48.49-12.16ZM70.31-18.22L70.31-18.22L70.31-18.22Q70.31-17.80 70.15-17.44L70.15-17.44L70.15-17.44Q69.99-17.07 69.71-16.80L69.71-16.80L69.71-16.80Q69.44-16.52 69.07-16.36L69.07-16.36L69.07-16.36Q68.70-16.20 68.29-16.20L68.29-16.20L68.29-16.20Q67.87-16.20 67.50-16.36L67.50-16.36L67.50-16.36Q67.13-16.52 66.85-16.80L66.85-16.80L66.85-16.80Q66.58-17.07 66.42-17.44L66.42-17.44L66.42-17.44Q66.26-17.80 66.26-18.22L66.26-18.22L66.26-18.22Q66.26-18.63 66.42-19.00L66.42-19.00L66.42-19.00Q66.58-19.37 66.85-19.64L66.85-19.64L66.85-19.64Q67.13-19.92 67.50-20.09L67.50-20.09L67.50-20.09Q67.87-20.25 68.29-20.25L68.29-20.25L68.29-20.25Q68.70-20.25 69.07-20.09L69.07-20.09L69.07-20.09Q69.44-19.92 69.71-19.64L69.71-19.64L69.71-19.64Q69.99-19.37 70.15-19.00L70.15-19.00L70.15-19.00Q70.31-18.63 70.31-18.22ZM69.64-14.84L69.64 0L66.93 0L66.93-14.84L69.64-14.84ZM78.75-12.16L78.75 0L76.04 0L76.04-12.16L72.00-12.16L72.00-14.84L76.04-14.84L76.04-20.25L78.75-20.25L78.75-14.84L88.20-14.84L88.20-12.16L78.75-12.16ZM107.83-7.42L107.83 0L105.13 0L105.13-7.42L105.13-7.42Q105.13-8.40 104.76-9.25L104.76-9.25L104.76-9.25Q104.39-10.11 103.75-10.75L103.75-10.75L103.75-10.75Q103.12-11.39 102.27-11.77L102.27-11.77L102.27-11.77Q101.42-12.14 100.45-12.16L100.45-12.16L93.02-12.16L93.02 0L90.32 0L90.32-20.25L93.02-20.25L93.02-14.84L100.45-14.84L100.45-14.84Q101.98-14.84 103.32-14.26L103.32-14.26L103.32-14.26Q104.66-13.67 105.67-12.66L105.67-12.66L105.67-12.66Q106.67-11.65 107.25-10.30L107.25-10.30L107.25-10.30Q107.83-8.95 107.83-7.42L107.83-7.42Z" fill="#ffffff"></path></g></g><style>text {
  font-size: 64px;
  font-family: Arial Black;
  dominant-baseline: central;
  text-anchor: middle;
}</style></svg>